<svg xmlns="http://www.w3.org/2000/svg" width="798" height="166.16" viewBox="0 0 798 166.16"><title>prokeep-lockup</title><g id="Layer_2" data-name="Layer 2"><g id="Layer_1-2" data-name="Layer 1"><path d="M300.62,67.17c0,29-7.8,39-40.41,39h-1.43a.76.76,0,0,0-.8.8v28.48a2.86,2.86,0,0,1-3.18,3.18H232.21a2.86,2.86,0,0,1-3.18-3.18v-105a2.86,2.86,0,0,1,3.18-3.18h28C292.82,27.24,300.62,35.83,300.62,67.17Zm-28.95,0c0-13.2-2.39-14.79-11.14-14.79h-1.75a.75.75,0,0,0-.8.79v27.2a.76.76,0,0,0,.8.8h1.75C268.8,81.17,271.67,79.58,271.67,67.17Z" fill="#fff4e3"/><path d="M409.28,132.55C399.09,123.64,397,107.1,397,83.08c0-22.75,2.06-38.66,10.81-47.89C413.73,29,422.48,26,435.68,26s22,3.5,27.52,10.18c8.12,9.39,10.19,25.29,10.19,46.93,0,24.66-2.39,41.2-13.05,50-5.73,4.77-13.84,7.16-25.45,7.16C423.12,140.19,414.84,137.64,409.28,132.55Zm35-31.74c.27-8.21.29-12.58.29-17.7,0-5,0-9.49-.29-17.7-.29-8.78-2.09-13.59-9.07-13.59s-8.78,4.81-9.07,13.59c-.27,8.21-.29,12.74-.29,17.7,0,5.12,0,9.49.29,17.7.29,8.78,2.09,13.6,9.07,13.6S444,109.59,444.25,100.81Z" fill="#fff4e3"/><path d="M607.26,113.14h26.41a2.86,2.86,0,0,1,3.18,3.19v19.09a2.86,2.86,0,0,1-3.18,3.18h-53a2.86,2.86,0,0,1-3.18-3.18v-105a2.86,2.86,0,0,1,3.18-3.18h51.38a2.86,2.86,0,0,1,3.19,3.18V49.51a2.86,2.86,0,0,1-3.19,3.18H607.26a.76.76,0,0,0-.8.8V68.6a.76.76,0,0,0,.8.8H629a2.85,2.85,0,0,1,3.18,3.18V91.51A2.85,2.85,0,0,1,629,94.69H607.26a.76.76,0,0,0-.8.8v16.86A.75.75,0,0,0,607.26,113.14Z" fill="#fff4e3"/><path d="M681.71,113.14h26.41a2.86,2.86,0,0,1,3.18,3.19v19.09a2.86,2.86,0,0,1-3.18,3.18h-53a2.86,2.86,0,0,1-3.18-3.18v-105a2.86,2.86,0,0,1,3.18-3.18h51.39a2.86,2.86,0,0,1,3.18,3.18V49.51a2.86,2.86,0,0,1-3.18,3.18H681.71a.75.75,0,0,0-.79.8V68.6a.75.75,0,0,0,.79.8H703.3a2.85,2.85,0,0,1,3.18,3.18V91.51a2.85,2.85,0,0,1-3.18,3.18H681.71a.75.75,0,0,0-.79.8v16.86A.74.74,0,0,0,681.71,113.14Z" fill="#fff4e3"/><path d="M798,67.17c0,29-7.8,39-40.41,39h-1.43a.75.75,0,0,0-.79.8v28.48a2.86,2.86,0,0,1-3.19,3.18H729.59a2.86,2.86,0,0,1-3.18-3.18v-105a2.86,2.86,0,0,1,3.18-3.18h28C790.2,27.24,798,35.83,798,67.17Zm-29,0c0-13.2-2.38-14.79-11.13-14.79h-1.75a.74.74,0,0,0-.79.79v27.2a.75.75,0,0,0,.79.8h1.75C766.18,81.17,769,79.58,769,67.17Z" fill="#fff4e3"/><rect x="37.71" y="137.88" width="131.98" height="28.28" rx="9.43" transform="translate(207.4 304.03) rotate(180)" fill="#67b4c5"/><rect y="91.92" width="131.98" height="28.28" rx="9.43" transform="translate(131.98 212.12) rotate(180)" fill="#aadadd"/><rect width="131.98" height="28.28" rx="9.43" transform="translate(131.98 28.28) rotate(180)" fill="#aadadd"/><rect x="75.42" y="45.96" width="94.27" height="28.28" rx="9.43" transform="translate(245.11 120.2) rotate(180)" fill="#67b4c5"/><path d="M375.87,100a1.35,1.35,0,0,1,.38-1.73c7.22-5.47,9.48-15.36,9.48-32.34,0-31.66-7.8-38.66-40.41-38.66h-28a3.19,3.19,0,0,0-3.18,3.19v105a3.18,3.18,0,0,0,3.18,3.18h22.59a3.19,3.19,0,0,0,3.19-3.19V105.19a.74.74,0,0,1,.78-.79,10.42,10.42,0,0,1,4.92,2.36c1.79,1.48,3.47,4.18,4.78,7.47,2.43,6,3.34,13.78,3.3,21.72a2.63,2.63,0,0,0,2.61,2.65h23.4a2.12,2.12,0,0,0,2.13-2.23c-.56-10.71-2.1-21.77-7.36-33C377.11,102.25,376.52,101.11,375.87,100ZM343.1,53.17a.74.74,0,0,1,.79-.79h1.75c8.75,0,11.13,1.59,11.13,13.52s-2.86,13.52-11.13,13.52h-1.75a.75.75,0,0,1-.79-.8Z" fill="#fff4e3"/><path d="M563,118.07c-1.54-6.94-3.36-14.08-7.6-20.86A47.7,47.7,0,0,0,541,82.55h0a.8.8,0,0,1-.33-.69.88.88,0,0,1,.14-.45h0c.78-1.23,1.29-2.1,1.42-2.31,8-13.28,17.56-33.51,23.2-46.68a3.71,3.71,0,0,0-3.42-5.18H540.41a2.94,2.94,0,0,0-2.77,1.93c-3.29,9.12-9.85,25.61-17.16,38.32a1.32,1.32,0,0,1-1,.64h-1.27a.75.75,0,0,1-.79-.8V30.42a3.19,3.19,0,0,0-3.18-3.18h-22.6a3.19,3.19,0,0,0-3.18,3.19v105a3.18,3.18,0,0,0,3.18,3.18h22.59a3.18,3.18,0,0,0,3.18-3.18V103.33a1.17,1.17,0,0,1,1.37-1.15,20.64,20.64,0,0,1,6,2,19.53,19.53,0,0,1,7.24,7.38c3.65,6.14,4.71,15.09,4.88,24.37a2.65,2.65,0,0,0,2.64,2.64H563a2.13,2.13,0,0,0,2.13-2.19A101,101,0,0,0,563,118.07Z" fill="#fff4e3"/></g></g></svg>